<svg width="1440" height="305" viewBox="0 0 1440 305" fill="none" xmlns="http://www.w3.org/2000/svg">
<mask id="mask0_2140_7754" style="mask-type:alpha" maskUnits="userSpaceOnUse" x="-1" y="0" width="1441" height="305">
<path fill-rule="evenodd" clip-rule="evenodd" d="M772.254 0.300319C752.414 1.98211 733.909 7.27192 715.951 16.3945C701.584 23.6933 689.888 32.3557 677.654 44.7579C664.59 58.0022 656.706 69.1495 648.752 85.6239C628.394 127.789 628.281 176.206 648.44 218.545C655.671 233.731 664.284 246.246 675.723 258.186C710.558 294.549 760.1 311.108 808.902 302.7C868.051 292.51 915.886 247.593 930.046 188.944C933.159 176.051 934.183 167.111 934.202 152.648C934.226 134.382 932.11 120.644 926.782 104.492C919.177 81.4329 907.647 62.4421 890.761 45.1612C867.133 20.9808 836.508 5.59298 803.212 1.17166C795.051 0.0880154 779.818 -0.340632 772.254 0.300319ZM-0.683594 17.4736V34.652H44.3551H89.3939V169.826V305H107.743H126.092V169.826V34.652H171.409H216.726V17.4736V0.295265H108.021H-0.683594V17.4736ZM271.773 152.648V305H290.4H309.027V169.792V34.5839L348.367 34.8086C385.734 35.022 387.971 35.0924 392.988 36.2082C414.147 40.9156 426.59 49.8016 433.969 65.4734C437.77 73.5438 439.182 79.9505 439.543 90.7492C440.179 109.812 435.674 123.546 425.137 134.664C416.212 144.08 405.322 149.53 389.096 152.699C385.441 153.413 379.677 153.683 363.658 153.891C352.266 154.039 342.945 154.275 342.945 154.416C342.945 154.89 360.042 181.048 400.949 243.159L441.641 304.946L464.049 304.973L486.457 305L482.894 299.79C480.935 296.924 464.115 271.896 445.515 244.172C426.916 216.447 410.487 192.006 409.006 189.859C407.525 187.711 406.506 185.789 406.74 185.588C406.975 185.387 409.794 184.527 413.006 183.676C438.731 176.865 458.037 161.837 468.726 140.302C471.78 134.15 475.096 123.673 476.479 115.802C477.94 107.494 478.472 90.2829 477.547 81.3C473.15 38.6346 448.6 11.1762 407.445 2.89172C395.184 0.423672 391.358 0.295265 330.06 0.295265H271.773V152.648ZM541.449 152.648V305H560.076H578.704V152.648V0.295265H560.076H541.449V152.648ZM989.613 152.648V305H1007.96H1026.31L1026.45 184.611L1026.59 64.2213L1030.05 69.0087C1031.95 71.6418 1045.95 91.5377 1061.15 113.222C1090.59 155.226 1110.08 183.008 1133.05 215.729C1140.87 226.881 1158.16 251.525 1171.45 270.494L1195.62 304.983L1214.39 304.992L1233.16 305V301.034V297.067L1217.21 274.14C1193.24 239.674 1168.93 204.834 1115.75 128.711C1088.52 89.7309 1086.03 86.1691 1051.14 36.2009L1026.07 0.295265H1007.84H989.613V152.648ZM1196.46 91.1502V182.006L1206.27 196.051C1211.66 203.776 1219.85 215.519 1224.48 222.146L1232.88 234.195L1233.16 149.208L1233.43 64.2213L1240.99 74.9226C1245.15 80.8083 1260.27 102.352 1274.6 122.797C1288.93 143.242 1307.41 169.601 1315.66 181.372C1323.92 193.144 1335.83 210.125 1342.12 219.108C1348.42 228.092 1364.55 251.093 1377.97 270.221L1402.36 305H1421.18H1440V300.788V296.576L1433.15 286.848C1411.71 256.42 1386.19 219.974 1350.2 168.418C1331.6 141.762 1313.89 116.411 1297.29 92.6642C1272.09 56.615 1235.86 4.71433 1234.38 2.54648L1232.88 0.338064L1214.67 0.316682L1196.46 0.295265V91.1502ZM1402.75 90.8517V181.408L1409.04 190.402C1412.5 195.348 1420.77 207.189 1427.43 216.714C1434.08 226.24 1439.63 234.034 1439.76 234.034C1439.89 234.034 1440 181.443 1440 117.164V0.295265H1421.37H1402.75V90.8517ZM794.525 38.6148C813.665 40.5546 830.506 46.5569 846.156 57.0171C880.187 79.7624 899.508 119.173 896.692 160.103C893.867 201.156 869.976 237.187 833.637 255.198C817.741 263.076 802.121 266.701 784.062 266.701C762.631 266.701 742.795 261.046 724.55 249.734C689.362 227.918 668.22 186.049 671.446 144.564C673.176 122.315 679.791 103.817 692.678 85.1964C697.416 78.351 710.813 64.7986 717.712 59.8721C740.81 43.3803 767.811 35.9074 794.525 38.6148Z" fill="url(#paint0_linear_2140_7754)"/>
</mask>
<g mask="url(#mask0_2140_7754)">
<rect x="1437.56" y="299" width="1437.56" height="2" transform="rotate(180 1437.56 299)" fill="#3F4144"/>
<rect x="1437.56" y="285" width="1437.56" height="2" transform="rotate(180 1437.56 285)" fill="#3F4144"/>
<rect x="1437.56" y="159" width="1437.56" height="2" transform="rotate(180 1437.56 159)" fill="#3F4144"/>
<rect x="1437.56" y="173" width="1437.56" height="2" transform="rotate(180 1437.56 173)" fill="#3F4144"/>
<rect x="1437.56" y="187" width="1437.56" height="2" transform="rotate(180 1437.56 187)" fill="#3F4144"/>
<rect x="1437.56" y="201" width="1437.56" height="2" transform="rotate(180 1437.56 201)" fill="#3F4144"/>
<rect x="1437.56" y="215" width="1437.56" height="2" transform="rotate(180 1437.56 215)" fill="#3F4144"/>
<rect x="1437.56" y="229" width="1437.56" height="2" transform="rotate(180 1437.56 229)" fill="#3F4144"/>
<rect x="1437.56" y="243" width="1437.56" height="2" transform="rotate(180 1437.56 243)" fill="#3F4144"/>
<rect x="1437.56" y="145" width="1437.56" height="2" transform="rotate(180 1437.56 145)" fill="#3F4144"/>
<rect x="1437.56" y="131" width="1437.56" height="2" transform="rotate(180 1437.56 131)" fill="#3F4144"/>
<rect x="1437.56" y="117" width="1437.56" height="2" transform="rotate(180 1437.56 117)" fill="#3F4144"/>
<rect x="1437.56" y="103" width="1437.56" height="2" transform="rotate(180 1437.56 103)" fill="#3F4144"/>
<rect x="1437.56" y="88.9995" width="1437.56" height="2" transform="rotate(180 1437.56 88.9995)" fill="#3F4144"/>
<rect x="1437.56" y="74.9995" width="1437.56" height="2" transform="rotate(180 1437.56 74.9995)" fill="#3F4144"/>
<rect x="1437.56" y="60.9995" width="1437.56" height="2" transform="rotate(180 1437.56 60.9995)" fill="#3F4144"/>
<rect x="1437.56" y="46.9995" width="1437.56" height="2" transform="rotate(180 1437.56 46.9995)" fill="#3F4144"/>
<rect x="1437.56" y="32.9995" width="1437.56" height="2" transform="rotate(180 1437.56 32.9995)" fill="#3F4144"/>
<rect x="1437.56" y="18.9995" width="1437.56" height="2" transform="rotate(180 1437.56 18.9995)" fill="#3F4144"/>
<rect x="1437.56" y="4.99951" width="1437.56" height="2" transform="rotate(180 1437.56 4.99951)" fill="#3F4144"/>
<rect x="1437.56" y="257" width="1437.56" height="2" transform="rotate(180 1437.56 257)" fill="#3F4144"/>
<rect x="1437.56" y="271" width="1437.56" height="2" transform="rotate(180 1437.56 271)" fill="#3F4144"/>
</g>
<defs>
<linearGradient id="paint0_linear_2140_7754" x1="719.658" y1="0" x2="719.658" y2="305" gradientUnits="userSpaceOnUse">
<stop offset="0.536458" stop-color="white"/>
<stop offset="1" stop-color="white" stop-opacity="0"/>
</linearGradient>
</defs>
</svg>
